<?xml version="1.0" standalone="no"?><!DOCTYPE svg PUBLIC "-//W3C//DTD SVG 1.1//EN" "http://www.w3.org/Graphics/SVG/1.1/DTD/svg11.dtd"><svg t="1731921773239" class="icon" viewBox="0 0 1024 1024" version="1.1" xmlns="http://www.w3.org/2000/svg" p-id="7878" xmlns:xlink="http://www.w3.org/1999/xlink" width="200" height="200"><path d="M512 1019.366516C275.692308 1019.366516 71.819005 843.294118 39.384615 609.303167c-18.533937-145.954751 20.850679-278.00905 120.470589-389.212669 13.900452-16.217195 27.800905-23.167421 39.384615-23.167421 9.266968 0 16.217195 4.633484 23.167421 11.58371 25.484163 27.800905 4.633484 50.968326-6.950226 64.868779-152.904977 173.755656-139.004525 419.330317 32.434389 572.235294 71.819005 64.868778 166.80543 99.61991 264.108597 99.619909 106.570136 0 208.506787-41.701357 282.642534-115.837104 150.588235-150.588235 159.855204-391.529412 18.533937-549.067873l-13.900453-13.900453c-11.58371-11.58371-16.217195-23.167421-16.217194-34.751131 0-9.266968 4.633484-18.533937 13.900452-25.484163 6.950226-6.950226 16.217195-9.266968 23.167421-9.266968 13.900452 0 27.800905 11.58371 34.751131 18.533937 53.285068 55.60181 83.402715 118.153846 106.570136 185.339366 13.900452 46.334842 23.167421 169.122172 23.167421 183.022625-2.316742 76.452489-30.117647 152.904977-69.502263 217.773755-44.0181 67.18552-104.253394 125.104072-173.755656 164.488688-64.868778 34.751131-139.004525 55.60181-213.140271 57.918552-2.316742-4.633484-9.266968-4.633484-16.217195-4.633484z" p-id="7879" fill="#CCCCCC"></path><path d="M509.683258 493.466063c-37.067873-2.316742-37.067873-34.751131-37.067873-50.968325V50.968326c0-37.067873 18.533937-50.968326 37.067873-50.968326 2.316742 0 6.950226 0 11.58371 2.316742 25.484163 6.950226 30.117647 27.800905 30.117647 46.334842v393.846154c0 41.701357-18.533937 50.968326-34.751131 50.968325h-6.950226z" p-id="7880" fill="#CCCCCC"></path></svg>