<?xml version="1.0" standalone="no"?><!DOCTYPE svg PUBLIC "-//W3C//DTD SVG 1.1//EN" "http://www.w3.org/Graphics/SVG/1.1/DTD/svg11.dtd"><svg t="1731922170480" class="icon" viewBox="0 0 1024 1024" version="1.1" xmlns="http://www.w3.org/2000/svg" p-id="24450" width="200" height="200" xmlns:xlink="http://www.w3.org/1999/xlink"><path d="M331.100667 36.272846C350.147013 15.219465 377.385337-0.099533 406.303016 0.002867h211.516848c23.797693-0.204799 46.42803 10.56765 64.3275 25.681848 10.67005 8.908775 19.353546 20.213703 24.71929 33.075108 15.646676 37.314456 31.231913 74.669871 46.899069 111.963846 68.669248 0 137.318016-0.04096 206.007743 0a20.418503 20.418503 0 0 1 18.411469 10.424291c2.990072 5.038066 2.559993 11.100129 2.621432 16.732113-0.204799 12.861404 0.204799 25.763768-0.143359 38.625172-0.08192 10.85437-10.219491 19.988424-20.971462 19.455946-21.38106 0.14336-42.7826-0.04096-64.14318 0.061439v631.499032c0.225279 29.880236-7.2499 60.149592-23.654334 85.298961-13.127643 20.295623-31.313832 38.563732-54.620007 46.48947a91.176705 91.176705 0 0 1-30.556074 4.669427l-551.238137-0.02048a88.309513 88.309513 0 0 1-41.861003-10.117092c-19.087307-10.158052-34.017185-26.808245-45.055873-45.117313-14.25404-23.756733-20.254663-51.711855-20.070344-79.257378-0.04096-211.168689 0.02048-422.296418-0.02048-633.465107-21.36058 0-42.6802 0.12288-63.999821 0-10.87485 0.614398-21.094341-8.642536-21.114821-19.619785-0.204799-15.462357-0.266239-30.965673 0.04096-46.42803 0.204799-10.77245 10.260451-19.763145 20.930501-19.189706 68.669248-0.04096 137.297536 0 205.966784 0l38.993811-93.122299c6.103023-14.35644 11.141089-29.593517 21.811139-41.369484z m63.180623 59.289434c-10.465251 25.06745-20.971461 50.11442-31.436712 75.202349l298.351804-0.02048c-10.158052-24.82169-20.398023-49.622901-30.474154-74.485551a16.752593 16.752593 0 0 0-16.793553-10.97725c-67.89101 0.06144-135.78202 0.04096-203.65255 0.02048a16.445394 16.445394 0 0 0-15.994835 10.260452z m-81.714972 246.967628a20.684742 20.684742 0 0 0-13.578202 20.438983l-0.02048 457.317119c0.14336 6.164463-0.552958 12.451805 0.921598 18.493389 2.334713 8.724456 11.120609 14.786519 20.029384 14.458839 14.766039 0.02048 29.532077 0.12288 44.298116-0.04096 11.263968 0.16384 20.766662-10.383331 19.988424-21.565379 0.06144-155.545164-0.02048-311.090329 0.04096-466.635494 0.307199-6.901741-1.638395-14.31548-7.29086-18.759627-7.700458-6.922221-18.800587-4.505587-28.241841-4.915187-12.062686 0.573438-24.330172-1.269756-36.147099 1.208317z m169.492006 0.368639a20.766662 20.766662 0 0 0-12.636125 20.234183c-0.02048 156.241483-0.04096 312.482965 0.02048 468.744928-0.737278 10.87485 8.417256 21.176261 19.414986 21.29914 15.441877 0.16384 30.883754 0.184319 46.34611-0.02048 10.936289-0.06144 20.070344-10.383331 19.394506-21.21722 0.04096-156.282442 0.02048-312.564885 0-468.847327a20.684742 20.684742 0 0 0-8.970215-18.18619c-8.171497-5.550064-18.636748-2.990072-27.873202-3.56351-11.878367 0.675838-24.125372-1.617915-35.69654 1.556476z m170.782242-0.12288c-8.212457 3.071991-13.434842 11.735007-13.004764 20.438983-0.04096 156.221003-0.06144 312.421525 0.02048 468.663008-0.716798 11.100129 8.785895 21.46298 19.988424 21.27866 15.421397 0.14336 30.883754 0.286719 46.34611-0.081919 10.77245-0.327679 19.496905-10.444771 18.902987-21.094341 0.12288-156.323402 0.1024-312.646805 0.02048-468.970207 0.696318-10.77245-8.130537-21.237701-19.128266-21.46298-11.530208-0.511999-23.039935-0.02048-34.570143-0.22528-6.205423 0.14336-12.615645-0.593918-18.575308 1.454076z" fill="#CCCCCC" p-id="24451"></path></svg>